<?xml version="1.0" encoding="UTF-8"?>
<svg xmlns="http://www.w3.org/2000/svg" id="Layer_1" data-name="Layer 1" viewBox="0 0 24 24">
  <path d="M13.27,7.48c-.813,.813-1.27,1.915-1.27,3.065v1.455h1.455c1.15,0,2.252-.457,3.065-1.27l6.807-6.807c.897-.897,.897-2.353,0-3.25-.897-.897-2.353-.897-3.25,0l-6.807,6.807Zm10.73-1.401v9.921c0,2.209-1.791,4-4,4h-2.853l-3.847,3.18c-.361,.322-.824,.484-1.292,.484-.476,0-.955-.168-1.337-.508l-3.749-3.156h-2.923c-2.209,0-4-1.791-4-4V4C0,1.791,1.791,0,4,0h13.922l-6.067,6.067c-1.188,1.188-1.855,2.798-1.855,4.478v2.455c0,.552,.448,1,1,1h2.455c1.679,0,3.29-.667,4.477-1.854l6.068-6.066Z"/>
</svg>
